{"asset":{"version":"2.0","generator":"Blockbench 4.11.1 glTF exporter"},"scenes":[{"nodes":[2],"name":"blockbench_export"}],"scene":0,"nodes":[{"translation":[1.4844399893930888e-17,3.2457196754470212,-9.458989699853636e-18],"name":"cylinder","mesh":0},{"translation":[8.28524645242654e-18,0.29842376514703783,-1.3670656646503793e-17],"name":"model","children":[0]},{"children":[1]}],"bufferViews":[{"buffer":0,"byteOffset":0,"byteLength":6624,"target":34962,"byteStride":12},{"buffer":0,"byteOffset":6624,"byteLength":6624,"target":34962,"byteStride":12},{"buffer":0,"byteOffset":13248,"byteLength":4416,"target":34962,"byteStride":8},{"buffer":0,"byteOffset":17664,"byteLength":1584,"target":34963}],"buffers":[{"byteLength":19248,"uri":"data:application/octet-stream;base64,"}],"accessors":[{"bufferView":0,"componentType":5126,"count":552,"max":[0.5,2.0339815616607666,0.40625],"min":[-0.5,-3.3253934383392334,-0.40625],"type":"VEC3"},{"bufferView":1,"componentType":5126,"count":552,"max":[1,1,1],"min":[-1,-1,-1],"type":"VEC3"},{"bufferView":2,"componentType":5126,"count":552,"max":[0.5600617527961731,0.6362793445587158],"min":[0.0037101777270436287,0],"type":"VEC2"},{"bufferView":3,"componentType":5123,"count":792,"max":[551],"min":[0],"type":"SCALAR"}],"materials":[{"pbrMetallicRoughness":{"metallicFactor":0,"roughnessFactor":1,"baseColorTexture":{"index":0}},"alphaMode":"MASK","alphaCutoff":0.05,"doubleSided":true}],"textures":[{"sampler":0,"source":0,"name":"baguette.png"}],"samplers":[{"magFilter":9728,"minFilter":9728,"wrapS":33071,"wrapT":33071}],"images":[{"mimeType":"image/png","uri":"data:image/png;base64,"}],"meshes":[{"primitives":[{"mode":4,"attributes":{"POSITION":0,"NORMAL":1,"TEXCOORD_0":2},"indices":3,"material":0}]}]}