{"asset":{"version":"2.0","generator":"Blockbench 4.11.1 glTF exporter"},"scenes":[{"nodes":[6],"name":"blockbench_export"}],"scene":0,"nodes":[{"translation":[0,0.0246875,0],"name":"cuboid","mesh":0},{"translation":[0,0.5834375,0],"name":"cuboid","mesh":1},{"translation":[0,0.3459375000000001,2.837236618486511e-18],"name":"cuboid","mesh":2},{"translation":[0,0.618975,2.7237471537470504e-18],"name":"cuboid","mesh":3},{"translation":[0,0.9131199999999999,2.491577008512531e-18],"name":"cuboid","mesh":4},{"translation":[0,-0.03125,0],"name":"bone","children":[0,1,2,3,4]},{"children":[5]}],"bufferViews":[{"buffer":0,"byteOffset":0,"byteLength":288,"target":34962,"byteStride":12},{"buffer":0,"byteOffset":288,"byteLength":288,"target":34962,"byteStride":12},{"buffer":0,"byteOffset":576,"byteLength":192,"target":34962,"byteStride":8},{"buffer":0,"byteOffset":768,"byteLength":72,"target":34963},{"buffer":0,"byteOffset":840,"byteLength":768,"target":34962,"byteStride":12},{"buffer":0,"byteOffset":1608,"byteLength":768,"target":34962,"byteStride":12},{"buffer":0,"byteOffset":2376,"byteLength":512,"target":34962,"byteStride":8},{"buffer":0,"byteOffset":2888,"byteLength":192,"target":34963},{"buffer":0,"byteOffset":3080,"byteLength":768,"target":34962,"byteStride":12},{"buffer":0,"byteOffset":3848,"byteLength":768,"target":34962,"byteStride":12},{"buffer":0,"byteOffset":4616,"byteLength":512,"target":34962,"byteStride":8},{"buffer":0,"byteOffset":5128,"byteLength":192,"target":34963},{"buffer":0,"byteOffset":5320,"byteLength":768,"target":34962,"byteStride":12},{"buffer":0,"byteOffset":6088,"byteLength":768,"target":34962,"byteStride":12},{"buffer":0,"byteOffset":6856,"byteLength":512,"target":34962,"byteStride":8},{"buffer":0,"byteOffset":7368,"byteLength":192,"target":34963},{"buffer":0,"byteOffset":7560,"byteLength":768,"target":34962,"byteStride":12},{"buffer":0,"byteOffset":8328,"byteLength":768,"target":34962,"byteStride":12},{"buffer":0,"byteOffset":9096,"byteLength":512,"target":34962,"byteStride":8},{"buffer":0,"byteOffset":9608,"byteLength":192,"target":34963}],"buffers":[{"byteLength":9800,"uri":"data:application/octet-stream;base64,"}],"accessors":[{"bufferView":0,"componentType":5126,"count":24,"max":[0.39500001072883606,0.09875000268220901,0.39500001072883606],"min":[-0.39500001072883606,0,-0.39500001072883606],"type":"VEC3"},{"bufferView":1,"componentType":5126,"count":24,"max":[1,1,1],"min":[-1,-1,-1],"type":"VEC3"},{"bufferView":2,"componentType":5126,"count":24,"max":[0.765625,0.5625],"min":[0,0],"type":"VEC2"},{"bufferView":3,"componentType":5123,"count":36,"max":[23],"min":[0],"type":"SCALAR"},{"bufferView":4,"componentType":5126,"count":64,"max":[0.34562501311302185,0.5743749737739563,0.34562501311302185],"min":[-0.34562501311302185,-0.47562500834465027,-0.34562501311302185],"type":"VEC3"},{"bufferView":5,"componentType":5126,"count":64,"max":[0.9071135520935059,1,0.9071135520935059],"min":[-0.9071135520935059,-1,-0.9071135520935059],"type":"VEC3"},{"bufferView":6,"componentType":5126,"count":64,"max":[0.6934067010879517,0.7715317010879517],"min":[0,0],"type":"VEC2"},{"bufferView":7,"componentType":5123,"count":96,"max":[63],"min":[0],"type":"SCALAR"},{"bufferView":8,"componentType":5126,"count":64,"max":[0.3204750120639801,0.11675000190734863,0.3204750120639801],"min":[-0.3204750120639801,-0.11675000190734863,-0.3204750120639801],"type":"VEC3"},{"bufferView":9,"componentType":5126,"count":64,"max":[0.9174208045005798,1,0.9174208045005798],"min":[-0.9174208045005798,-1,-0.9174208045005798],"type":"VEC3"},{"bufferView":10,"componentType":5126,"count":64,"max":[0.734375,0.734375],"min":[0,0.046875],"type":"VEC2"},{"bufferView":11,"componentType":5123,"count":96,"max":[63],"min":[0],"type":"SCALAR"},{"bufferView":12,"componentType":5126,"count":64,"max":[0.24765600264072418,0.11332999914884567,0.24765600264072418],"min":[-0.24765600264072418,-0.09832999855279922,-0.24765600264072418],"type":"VEC3"},{"bufferView":13,"componentType":5126,"count":64,"max":[0.9161031246185303,1,0.9161031246185303],"min":[-0.9161031246185303,-1,-0.9161031246185303],"type":"VEC3"},{"bufferView":14,"componentType":5126,"count":64,"max":[0.796875,0.78125],"min":[0,0],"type":"VEC2"},{"bufferView":15,"componentType":5123,"count":96,"max":[63],"min":[0],"type":"SCALAR"},{"bufferView":16,"componentType":5126,"count":64,"max":[0.18605445325374603,0.08647599816322327,0.18605445325374603],"min":[-0.18605445325374603,-0.08647599816322327,-0.18605445325374603],"type":"VEC3"},{"bufferView":17,"componentType":5126,"count":64,"max":[0.9078907370567322,1,0.9078907370567322],"min":[-0.9078907370567322,-1,-0.9078907370567322],"type":"VEC3"},{"bufferView":18,"componentType":5126,"count":64,"max":[0.8125,0.8125],"min":[0.265625,0.15625],"type":"VEC2"},{"bufferView":19,"componentType":5123,"count":96,"max":[63],"min":[0],"type":"SCALAR"}],"materials":[{"pbrMetallicRoughness":{"metallicFactor":0,"roughnessFactor":1,"baseColorTexture":{"index":0}},"alphaMode":"MASK","alphaCutoff":0.05,"doubleSided":true}],"textures":[{"sampler":0,"source":0,"name":"conus.png"}],"samplers":[{"magFilter":9728,"minFilter":9728,"wrapS":33071,"wrapT":33071}],"images":[{"mimeType":"image/png","uri":"data:image/png;base64,"}],"meshes":[{"primitives":[{"mode":4,"attributes":{"POSITION":0,"NORMAL":1,"TEXCOORD_0":2},"indices":3,"material":0}]},{"primitives":[{"mode":4,"attributes":{"POSITION":4,"NORMAL":5,"TEXCOORD_0":6},"indices":7,"material":0}]},{"primitives":[{"mode":4,"attributes":{"POSITION":8,"NORMAL":9,"TEXCOORD_0":10},"indices":11,"material":0}]},{"primitives":[{"mode":4,"attributes":{"POSITION":12,"NORMAL":13,"TEXCOORD_0":14},"indices":15,"material":0}]},{"primitives":[{"mode":4,"attributes":{"POSITION":16,"NORMAL":17,"TEXCOORD_0":18},"indices":19,"material":0}]}]}