{"asset":{"version":"2.0","generator":"Blockbench 4.11.1 glTF exporter"},"scenes":[{"nodes":[2],"name":"blockbench_export"}],"scene":0,"nodes":[{"translation":[0,-0.7512913223140496,6.938893903907228e-18],"name":"cylinder","mesh":0},{"translation":[0.010000000000000009,0.8137913223140496,-0.015625000000000007],"name":"bone","children":[0]},{"children":[1]}],"bufferViews":[{"buffer":0,"byteOffset":0,"byteLength":12096,"target":34962,"byteStride":12},{"buffer":0,"byteOffset":12096,"byteLength":12096,"target":34962,"byteStride":12},{"buffer":0,"byteOffset":24192,"byteLength":8064,"target":34962,"byteStride":8},{"buffer":0,"byteOffset":32256,"byteLength":2880,"target":34963}],"buffers":[{"byteLength":35136,"uri":"data:application/octet-stream;base64,"}],"accessors":[{"bufferView":0,"componentType":5126,"count":1008,"max":[0.6652927994728088,1.5199975967407227,0.6652927994728088],"min":[-0.6652927994728088,-0.06079990416765213,-0.6652927994728088],"type":"VEC3"},{"bufferView":1,"componentType":5126,"count":1008,"max":[1,1,1],"min":[-1,-1,-1],"type":"VEC3"},{"bufferView":2,"componentType":5126,"count":1008,"max":[0.9673640727996826,0.7627328038215637],"min":[0.0006671875016763806,0],"type":"VEC2"},{"bufferView":3,"componentType":5123,"count":1440,"max":[1007],"min":[0],"type":"SCALAR"}],"materials":[{"pbrMetallicRoughness":{"metallicFactor":0,"roughnessFactor":1,"baseColorTexture":{"index":0}},"alphaMode":"MASK","alphaCutoff":0.05,"doubleSided":true}],"textures":[{"sampler":0,"source":0,"name":"cylinder.png"}],"samplers":[{"magFilter":9728,"minFilter":9728,"wrapS":33071,"wrapT":33071}],"images":[{"mimeType":"image/png","uri":"data:image/png;base64,"}],"meshes":[{"primitives":[{"mode":4,"attributes":{"POSITION":0,"NORMAL":1,"TEXCOORD_0":2},"indices":3,"material":0}]}]}