{"asset":{"version":"2.0","generator":"Blockbench 4.11.1 glTF exporter"},"scenes":[{"nodes":[3],"name":"blockbench_export"}],"scene":0,"nodes":[{"rotation":[0.6935199226610735,0.13794968964147145,-0.13794968964147153,0.6935199226610739],"translation":[-0.140625,0.15156250000000002,0.09180679974213979],"name":"cylinder","mesh":0},{"translation":[0.15625,-0.046875,-0.03125],"name":"cylinder","mesh":1},{"name":"model","children":[0,1]},{"children":[2]}],"bufferViews":[{"buffer":0,"byteOffset":0,"byteLength":1080,"target":34962,"byteStride":12},{"buffer":0,"byteOffset":1080,"byteLength":1080,"target":34962,"byteStride":12},{"buffer":0,"byteOffset":2160,"byteLength":720,"target":34962,"byteStride":8},{"buffer":0,"byteOffset":2880,"byteLength":216,"target":34963},{"buffer":0,"byteOffset":3096,"byteLength":1080,"target":34962,"byteStride":12},{"buffer":0,"byteOffset":4176,"byteLength":1080,"target":34962,"byteStride":12},{"buffer":0,"byteOffset":5256,"byteLength":720,"target":34962,"byteStride":8},{"buffer":0,"byteOffset":5976,"byteLength":216,"target":34963}],"buffers":[{"byteLength":6192,"uri":"data:application/octet-stream;base64,"}],"accessors":[{"bufferView":0,"componentType":5126,"count":90,"max":[0.16675230860710144,0.234375,0.1581932008266449],"min":[-0.16675230860710144,-0.234375,-0.16834568977355957],"type":"VEC3"},{"bufferView":1,"componentType":5126,"count":90,"max":[0.9846345782279968,1,1],"min":[-0.9846345782279968,-1,-0.940326988697052],"type":"VEC3"},{"bufferView":2,"componentType":5126,"count":90,"max":[0.5,0.609375],"min":[0.005187499802559614,0],"type":"VEC2"},{"bufferView":3,"componentType":5123,"count":108,"max":[89],"min":[0],"type":"SCALAR"},{"bufferView":4,"componentType":5126,"count":90,"max":[0.16675230860710144,0.515625,0.15625],"min":[-0.16675230860710144,0.046875,-0.17028889060020447],"type":"VEC3"},{"bufferView":5,"componentType":5126,"count":90,"max":[0.9846345782279968,1,1],"min":[-0.9846345782279968,-1,-0.940326988697052],"type":"VEC3"},{"bufferView":6,"componentType":5126,"count":90,"max":[0.40625,0.5],"min":[0,0],"type":"VEC2"},{"bufferView":7,"componentType":5123,"count":108,"max":[89],"min":[0],"type":"SCALAR"}],"materials":[{"pbrMetallicRoughness":{"metallicFactor":0,"roughnessFactor":1,"baseColorTexture":{"index":0}},"alphaMode":"MASK","alphaCutoff":0.05,"doubleSided":true}],"textures":[{"sampler":0,"source":0,"name":"texture"}],"samplers":[{"magFilter":9728,"minFilter":9728,"wrapS":33071,"wrapT":33071}],"images":[{"mimeType":"image/png","uri":"data:image/png;base64,"}],"meshes":[{"primitives":[{"mode":4,"attributes":{"POSITION":0,"NORMAL":1,"TEXCOORD_0":2},"indices":3,"material":0}]},{"primitives":[{"mode":4,"attributes":{"POSITION":4,"NORMAL":5,"TEXCOORD_0":6},"indices":7,"material":0}]}]}