{"asset":{"version":"2.0","generator":"Blockbench 4.11.1 glTF exporter"},"scenes":[{"nodes":[2],"name":"blockbench_export"}],"scene":0,"nodes":[{"translation":[-0.04988425925925927,-0.6494047619047619,0.08841963566827694],"name":"cuboid","mesh":0},{"translation":[0.04988425925925927,0.8994047619047619,-0.08841963566827694],"name":"bone","children":[0]},{"children":[1]}],"bufferViews":[{"buffer":0,"byteOffset":0,"byteLength":4224,"target":34962,"byteStride":12},{"buffer":0,"byteOffset":4224,"byteLength":4224,"target":34962,"byteStride":12},{"buffer":0,"byteOffset":8448,"byteLength":2816,"target":34962,"byteStride":8},{"buffer":0,"byteOffset":11264,"byteLength":1056,"target":34963}],"buffers":[{"byteLength":12320,"uri":"data:application/octet-stream;base64,"}],"accessors":[{"bufferView":0,"componentType":5126,"count":352,"max":[0.75,1.21875,0.71875],"min":[-0.65625,-0.25,-0.71875],"type":"VEC3"},{"bufferView":1,"componentType":5126,"count":352,"max":[0.9486833214759827,1,0.9721342921257019],"min":[-0.9626192450523376,-1,-0.9635179042816162],"type":"VEC3"},{"bufferView":2,"componentType":5126,"count":352,"max":[0.9558244943618774,0.8764647841453552],"min":[0,0],"type":"VEC2"},{"bufferView":3,"componentType":5123,"count":528,"max":[351],"min":[0],"type":"SCALAR"}],"materials":[{"pbrMetallicRoughness":{"metallicFactor":0,"roughnessFactor":1,"baseColorTexture":{"index":0}},"alphaMode":"MASK","alphaCutoff":0.05,"doubleSided":true}],"textures":[{"sampler":0,"source":0,"name":"texture"}],"samplers":[{"magFilter":9728,"minFilter":9728,"wrapS":33071,"wrapT":33071}],"images":[{"mimeType":"image/png","uri":"data:image/png;base64,"}],"meshes":[{"primitives":[{"mode":4,"attributes":{"POSITION":0,"NORMAL":1,"TEXCOORD_0":2},"indices":3,"material":0}]}]}